IKResults
version=1
nRows=13
nColumns=40
inDegrees=yes

Units are S.I. units (second, meters, Newtons, ...)
Angles are in degrees.

endheader
time	pelvis_tilt	pelvis_list	pelvis_rotation	pelvis_tx	pelvis_ty	pelvis_tz	hip_flexion_r	hip_adduction_r	hip_rotation_r	knee_angle_r	knee_angle_r_beta	ankle_angle_r	subtalar_angle_r	mtp_angle_r	hip_flexion_l	hip_adduction_l	hip_rotation_l	knee_angle_l	knee_angle_l_beta	ankle_angle_l	subtalar_angle_l	mtp_angle_l	lumbar_extension	lumbar_bending	lumbar_rotation	arm_flex_r	arm_add_r	arm_rot_r	elbow_flex_r	pro_sup_r	wrist_flex_r	wrist_dev_r	arm_flex_l	arm_add_l	arm_rot_l	elbow_flex_l	pro_sup_l	wrist_flex_l	wrist_dev_l
      0.51000000	     15.47364438	     -1.94962008	      4.07668979	     -0.00705299	      0.91684471	      0.96176880	     12.00661094	     -3.13252694	    -31.28594203	    -15.12766803	     -0.26402762	     -0.16191682	     10.17315277	     -7.71006893	    -27.09024535	      1.45373119	      5.01742520	    -18.08950936	     -0.31572150	     19.86374002	      6.36070285	     -8.56709487	    -22.62658497	      3.07724934	     -9.34922659	    -21.59860762	    -12.23080478	     -6.84653996	     13.42438073	     89.95437384	      0.00000000	      0.00000000	     12.34188256	     14.73943070	      6.26416762	     48.71167439	     89.95437384	      0.00000000	      0.00000000
      0.52000000	     15.21899132	     -2.29619065	      4.53790508	      0.00826867	      0.91401530	      0.96214217	     12.70094519	     -2.90248449	    -33.15425636	    -14.33654794	     -0.25021996	      0.07591318	     12.05901628	    -10.00982833	    -27.53653973	      2.23365434	      5.18489821	    -18.67112512	     -0.32587261	     19.85825847	      5.77238017	     -9.29918694	    -22.11500048	      3.57162283	     -9.70181369	    -22.36916561	    -12.31120010	     -7.01465627	     13.34822266	     89.95437384	      0.00000000	      0.00000000	     12.74145662	     14.85600596	      6.37621507	     49.72267072	     89.95437384	      0.00000000	      0.00000000
      0.53000000	     14.94535717	     -2.69928510	      4.94704274	      0.02384312	      0.91142459	      0.96262282	     13.21989935	     -2.34846201	    -33.56970092	    -13.46905561	     -0.23507937	      0.71201430	     12.01804875	     -9.88965983	    -27.98115255	      2.98079798	      4.99944144	    -19.23233462	     -0.33566756	     19.81009210	      5.81161198	     -9.00404243	    -21.53558959	      4.10089146	    -10.07065151	    -23.07052188	    -12.45330343	     -6.87590607	     13.31237744	     89.95437384	      0.00000000	      0.00000000	     13.05340792	     14.93174746	      6.51484518	     50.52649517	     89.95437384	      0.00000000	      0.00000000
      0.54000000	     14.56063023	     -2.90757588	      5.59046468	      0.03967235	      0.90885930	      0.96242988	     13.81683348	     -2.21793303	    -34.07916969	    -13.18217981	     -0.23007244	      1.30279921	     11.89646491	     -9.93498354	    -28.16201364	      3.60079703	      4.28190204	    -20.02273776	     -0.34946270	     19.44959138	      5.68592768	     -9.02507470	    -20.76476834	      4.52976182	    -10.66942580	    -23.83078516	    -12.54142040	     -7.03429492	     13.35691464	     89.95437384	      0.00000000	      0.00000000	     13.39345176	     14.93484894	      6.53008845	     51.01913282	     89.95437384	      0.00000000	      0.00000000
      0.55000000	     14.45778349	     -3.23493902	      6.39886138	      0.05585751	      0.90694208	      0.96226864	     14.00017787	     -1.99306504	    -34.54338314	    -13.24929160	     -0.23124376	      1.57071889	     11.45985801	     -9.96005799	    -28.49765365	      4.48074055	      3.59975128	    -21.06971373	     -0.36773588	     19.16765353	      5.74585485	     -9.20712943	    -20.25671852	      5.11326737	    -11.40430152	    -24.49263610	    -12.63047260	     -7.15239087	     13.49619697	     89.95437384	      0.00000000	      0.00000000	     13.61337870	     14.96337255	      6.61192302	     51.52460810	     89.95437384	      0.00000000	      0.00000000
      0.56000000	     14.21058545	     -3.40535959	      6.98279265	      0.07239957	      0.90502793	      0.96219483	     14.42801223	     -1.91723336	    -34.02831107	    -13.99078452	     -0.24418525	      2.03481901	      9.71443877	     -8.85362868	    -28.75576246	      5.03273351	      2.87176753	    -22.02565675	     -0.38442023	     18.47289510	      5.93396124	     -8.58499836	    -19.55430829	      5.46448981	    -12.01858203	    -25.19216591	    -12.74484796	     -7.21961421	     13.66970214	     89.95437384	      0.00000000	      0.00000000	     13.72001081	     14.82934721	      6.86420953	     51.85464851	     89.95437384	      0.00000000	      0.00000000
      0.57000000	     13.87029041	     -3.40991805	      7.45094257	      0.08945126	      0.90311299	      0.96216775	     15.06456183	     -2.15168684	    -33.38536203	    -15.53875755	     -0.27120248	      2.61456411	      7.72243170	     -7.75349674	    -28.94291420	      5.34895931	      2.18950856	    -22.98629354	     -0.40118651	     17.56833693	      6.14268028	     -7.86322522	    -18.73229974	      5.58840555	    -12.61076399	    -25.91135835	    -12.87076417	     -7.24611915	     13.94896508	     89.95437384	      0.00000000	      0.00000000	     13.60947107	     14.73964769	      7.09013062	     52.25808785	     89.95437384	      0.00000000	      0.00000000
      0.58000000	     13.60459636	     -3.55323152	      8.02820161	      0.10678719	      0.90151035	      0.96226109	     15.47146641	     -2.20044695	    -32.71825361	    -17.11013881	     -0.29862826	      2.81169008	      6.16130585	     -7.46538889	    -29.03830099	      5.89727119	      1.64475701	    -24.19829537	     -0.42233993	     16.38652181	      6.41777983	     -7.72618786	    -17.92658526	      5.86789628	    -13.18699038	    -26.60173143	    -12.92542848	     -7.51173788	     14.15318567	     89.95437384	      0.00000000	      0.00000000	     13.53644583	     14.60418325	      7.17457759	     52.38662742	     89.95437384	      0.00000000	      0.00000000
      0.59000000	     13.36577568	     -3.60974696	      8.50144725	      0.12441622	      0.90014724	      0.96257466	     15.74217251	     -2.17616887	    -31.39820902	    -18.71945848	     -0.32671618	      3.26303448	      4.34519996	     -7.11872879	    -29.13544164	      6.29836880	      1.19503795	    -25.45109198	     -0.44420535	     14.88670272	      6.98758948	     -7.51211954	    -17.16074184	      6.00008788	    -13.67960178	    -27.27836992	    -12.93055933	     -7.86552110	     14.42686205	     89.95437384	      0.00000000	      0.00000000	     13.29941975	     14.41614230	      7.38364580	     52.59305076	     89.95437384	      0.00000000	      0.00000000
      0.60000000	     13.04192625	     -3.59672652	      8.72751663	      0.14183391	      0.89913513	      0.96283620	     15.87371058	     -1.67421426	    -27.91210309	    -19.65495480	     -0.34304368	      2.92404344	      0.04469316	     -5.95506109	    -29.18739825	      6.21486670	      0.07602391	    -26.63956897	     -0.46494819	     13.48388097	      9.26212033	     -7.47943102	    -16.39764145	      6.05552663	    -13.97345842	    -27.67494939	    -12.89305189	     -9.04140047	     14.43838326	     89.95437384	      0.00000000	      0.00000000	     13.05637102	     14.15136977	      7.55491151	     52.67192960	     89.95437384	      0.00000000	      0.00000000
      0.61000000	     12.95753820	     -3.65892871	      9.07132597	      0.16007837	      0.89839287	      0.96339278	     16.08296202	     -1.76203397	    -28.05295001	    -21.59002258	     -0.37681698	      0.38454012	     -1.50868817	     -5.22834770	    -29.21322306	      6.61856337	      0.27689791	    -28.24892650	     -0.49303678	     11.16086324	      9.81281217	     -7.11962662	    -15.77786422	      6.17393837	    -14.23931667	    -28.32670728	    -12.87244536	     -9.22355745	     14.78914689	     89.95437384	      0.00000000	      0.00000000	     12.70560621	     13.91603456	      7.60509084	     52.71161419	     89.95437384	      0.00000000	      0.00000000
      0.62000000	     12.97739033	     -4.07436560	      9.37052273	      0.17777528	      0.89832518	      0.96407850	     15.92830913	     -1.01083932	    -26.19870247	    -22.23137937	     -0.38801077	     -2.80082770	     -5.18954748	     -3.98838423	    -29.19482487	      7.16163029	     -0.00352586	    -29.99223781	     -0.52346330	      8.84521716	     11.61062464	     -6.79299259	    -15.33515923	      6.71705486	    -14.34742253	    -28.60834624	    -12.80154571	    -10.21887936	     14.83121722	     89.95437384	      0.00000000	      0.00000000	     12.41016935	     13.57271407	      7.71065771	     52.62420213	     89.95437384	      0.00000000	      0.00000000
      0.63000000	     13.11256937	     -4.61633764	      9.35324204	      0.19545922	      0.89850592	      0.96525431	     16.06611646	     -0.50529668	    -24.98579508	    -24.29729353	     -0.42406777	     -3.46748593	     -5.63566987	     -3.86733942	    -29.09704514	      7.84223844	      0.64183348	    -31.97860931	     -0.55813202	      5.95754149	     12.51546541	     -6.27615974	    -15.05928627	      7.30900905	    -14.04696066	    -28.88848800	    -12.85855603	    -10.13788833	     14.98682631	     89.95437384	      0.00000000	      0.00000000	     12.13077076	     13.13950471	      7.82601429	     52.48157625	     89.95437384	      0.00000000	      0.00000000
